<svg width="100" height="120" viewBox="0 0 100 120" fill="none" xmlns="http://www.w3.org/2000/svg">
<path d="M97.9176 60.5386C99.5676 54.8453 99.8676 48.3986 98.8114 41.3657L93.3989 5.1311C93.1853 3.70659 92.4421 2.40355 91.3055 1.46105C90.169 0.518552 88.7154 -0.000191836 87.2114 5.32173e-08H12.2114C10.7075 -0.000191836 9.25384 0.518552 8.11729 1.46105C6.98075 2.40355 6.23751 3.70659 6.02394 5.1311L0.617696 41.3597C-0.438553 48.3986 -0.138552 54.8453 1.5052 60.5326C6.90519 79.2748 23.6989 92.7783 43.4614 95.1824V107.645H30.9614V119.606H68.4614V107.645H55.9614V95.1824C75.7239 92.7783 92.5176 79.2748 97.9176 60.5386ZM81.7926 11.9606L85.3551 35.8818H14.0614L17.6302 11.9606H81.7926ZM13.5552 57.3511C12.7302 54.5164 12.4239 51.3169 12.5614 47.8424H86.8676C86.9989 51.3169 86.6926 54.5164 85.8739 57.357C83.6763 64.9243 78.9533 71.5966 72.4246 76.3568C65.8959 81.1171 57.9196 83.7043 49.7114 83.7242C41.503 83.7047 33.5265 81.1167 26.9986 76.3551C20.4706 71.5935 15.7494 64.9195 13.5552 57.3511Z" fill="#F3C300"/>
</svg>
