<svg width="125" height="108" viewBox="0 0 125 108" fill="none" xmlns="http://www.w3.org/2000/svg">
<path d="M117.325 36.8147L108.775 12.2656C107.535 8.69225 105.149 5.5838 101.957 3.3819C98.7649 1.18001 94.9288 -0.00333823 90.9938 7.07334e-06H34.0062C30.0712 -0.00333823 26.2351 1.18001 23.043 3.3819C19.851 5.5838 17.4653 8.69225 16.225 12.2656L7.675 36.8147C5.40383 37.7265 3.46423 39.2592 2.09903 41.2207C0.733827 43.1823 0.00368181 45.4856 0 47.8423V77.7438C0 82.247 2.64375 86.1282 6.49375 88.1674C6.4125 88.5621 6.25 88.921 6.25 89.3336V101.665C6.25 103.251 6.90848 104.772 8.08058 105.894C9.25268 107.015 10.8424 107.645 12.5 107.645H18.75C20.4076 107.645 21.9973 107.015 23.1694 105.894C24.3415 104.772 25 103.251 25 101.665V89.7044H100V101.665C100 103.251 100.658 104.772 101.831 105.894C103.003 107.015 104.592 107.645 106.25 107.645H112.5C114.158 107.645 115.747 107.015 116.919 105.894C118.092 104.772 118.75 103.251 118.75 101.665V89.3336C118.75 88.921 118.588 88.5562 118.506 88.1674C120.465 87.1456 122.101 85.6392 123.243 83.8056C124.386 81.972 124.992 79.8785 125 77.7438V47.8423C125 42.8847 121.825 38.6267 117.325 36.8147ZM12.5 77.7438V47.8423H112.5L112.513 77.7438H12.5ZM34.0062 11.9606H90.9875C93.6813 11.9606 96.0687 13.5992 96.9187 16.0511L103.831 35.8818H21.1688L28.075 16.0511C28.4897 14.8598 29.2857 13.8236 30.3503 13.0894C31.4149 12.3552 32.694 11.9603 34.0062 11.9606Z" fill="#F3C300"/>
<path d="M28.125 71.7637C33.3027 71.7637 37.5 67.7475 37.5 62.7932C37.5 57.839 33.3027 53.8228 28.125 53.8228C22.9473 53.8228 18.75 57.839 18.75 62.7932C18.75 67.7475 22.9473 71.7637 28.125 71.7637Z" fill="#F3C300"/>
<path d="M96.875 71.7637C102.053 71.7637 106.25 67.7475 106.25 62.7932C106.25 57.839 102.053 53.8228 96.875 53.8228C91.6973 53.8228 87.5 57.839 87.5 62.7932C87.5 67.7475 91.6973 71.7637 96.875 71.7637Z" fill="#F3C300"/>
</svg>
