<svg width="50" height="50" viewBox="0 0 50 50" fill="none" xmlns="http://www.w3.org/2000/svg">
<path d="M41.6668 8.33337H12.5002C10.2022 8.33337 8.3335 10.2021 8.3335 12.5V22.9167H12.5002V16.6667L25.8335 26.6667C26.1942 26.9369 26.6328 27.0829 27.0835 27.0829C27.5342 27.0829 27.9727 26.9369 28.3335 26.6667L41.6668 16.6667V35.4167H25.0002V39.5834H41.6668C43.9647 39.5834 45.8335 37.7146 45.8335 35.4167V12.5C45.8335 10.2021 43.9647 8.33337 41.6668 8.33337ZM27.0835 22.3959L13.8877 12.5H40.2793L27.0835 22.3959Z" fill="black"/>
<path d="M4.1665 25H18.7498V29.1667H4.1665V25ZM8.33317 31.25H20.8332V35.4167H8.33317V31.25ZM14.5832 37.5H22.9165V41.6667H14.5832V37.5Z" fill="black"/>
</svg>
