<svg width="35" height="32" viewBox="0 0 35 32" fill="none" xmlns="http://www.w3.org/2000/svg">
<path d="M33.0556 0H1.94444C1.42875 0 0.934169 0.184463 0.569515 0.512809C0.20486 0.841156 0 1.28649 0 1.75084V29.7643C0 30.2286 0.20486 30.674 0.569515 31.0023C0.934169 31.3307 1.42875 31.5151 1.94444 31.5151H18.6958V19.3293H14.1497V14.5582H18.6958V11.0566C18.6958 6.98585 21.4569 4.76754 25.5014 4.76754C26.8606 4.76404 28.2217 4.82707 29.575 4.95488V9.19191H26.7847C24.5914 9.19191 24.1636 10.1339 24.1636 11.5118V14.5495H29.4078L28.7272 19.3205H24.1617V31.5151H33.0556C33.5713 31.5151 34.0658 31.3307 34.4305 31.0023C34.7951 30.674 35 30.2286 35 29.7643V1.75084C35 1.28649 34.7951 0.841156 34.4305 0.512809C34.0658 0.184463 33.5713 0 33.0556 0Z" fill="white"/>
</svg>
