<svg width="50" height="50" viewBox="0 0 50 50" fill="none" xmlns="http://www.w3.org/2000/svg">
<path d="M6.24988 27.0834H8.33322V41.6667C8.33322 43.9646 10.202 45.8334 12.4999 45.8334H37.4999C39.7978 45.8334 41.6665 43.9646 41.6665 41.6667V27.0834H43.7499C44.1619 27.0833 44.5646 26.961 44.9071 26.7321C45.2496 26.5032 45.5166 26.1778 45.6742 25.7972C45.8319 25.4166 45.8731 24.9978 45.7928 24.5937C45.7124 24.1896 45.5141 23.8185 45.2228 23.5271L26.4728 4.7771C26.2795 4.58346 26.0499 4.42984 25.7972 4.32502C25.5444 4.22021 25.2735 4.16626 24.9999 4.16626C24.7263 4.16626 24.4553 4.22021 24.2026 4.32502C23.9499 4.42984 23.7203 4.58346 23.527 4.7771L4.77696 23.5271C4.4857 23.8185 4.28735 24.1896 4.207 24.5937C4.12665 24.9978 4.16791 25.4166 4.32555 25.7972C4.4832 26.1778 4.75016 26.5032 5.09268 26.7321C5.4352 26.961 5.8379 27.0833 6.24988 27.0834ZM20.8332 41.6667V31.25H29.1666V41.6667H20.8332ZM24.9999 9.19585L37.4999 21.6959V31.25L37.502 41.6667H33.3332V31.25C33.3332 28.9521 31.4645 27.0834 29.1666 27.0834H20.8332C18.5353 27.0834 16.6665 28.9521 16.6665 31.25V41.6667H12.4999V21.6959L24.9999 9.19585Z" fill="black"/>
</svg>
