<svg width="126" height="114" viewBox="0 0 126 114" fill="none" xmlns="http://www.w3.org/2000/svg">
<path d="M106.769 32.0248C113.679 32.0248 119.281 26.4227 119.281 19.5123C119.281 12.6018 113.679 6.99976 106.769 6.99976C99.8582 6.99976 94.2562 12.6018 94.2562 19.5123C94.2562 26.4227 99.8582 32.0248 106.769 32.0248Z" fill="#F3C300"/>
<path d="M105.969 64.6188C102.425 67.45 99.8563 69.5 94.2313 69.5C88.6125 69.5 86.1813 67.5563 82.5063 64.6188C78.2563 61.225 72.975 57 62.9625 57C52.9563 57 47.6813 61.225 43.4375 64.6188C39.7625 67.5563 37.3438 69.5 31.7188 69.5C26.1063 69.5 23.6813 67.5563 20.0125 64.625C15.7688 61.225 10.5 57 0.500031 57V69.5C6.10628 69.5 8.53128 71.4438 12.2 74.375C16.4438 77.775 21.7188 82 31.7188 82C41.7188 82 47.0063 77.775 51.25 74.375C54.9188 71.4375 57.35 69.5 62.9625 69.5C68.5875 69.5 71.1563 71.55 74.7 74.3813C78.9438 77.775 84.225 82 94.2313 82C104.244 82 109.525 77.775 113.775 74.3813C117.45 71.4438 119.881 69.5 125.5 69.5V57C115.494 57 110.213 61.225 105.969 64.6188ZM94.2313 100.75C88.6125 100.75 86.1813 98.8063 82.5063 95.8688C78.2563 92.475 72.975 88.25 62.9625 88.25C52.9563 88.25 47.6813 92.475 43.4375 95.8688C39.7625 98.8063 37.3438 100.75 31.7188 100.75C26.1063 100.75 23.6813 98.8063 20.0125 95.875C15.7688 92.475 10.5 88.25 0.500031 88.25V100.75C6.10628 100.75 8.53128 102.694 12.2 105.625C16.4438 109.025 21.7188 113.25 31.7188 113.25C41.7188 113.25 47.0063 109.025 51.25 105.625C54.9188 102.688 57.35 100.75 62.9625 100.75C68.5875 100.75 71.1563 102.8 74.7 105.631C78.9438 109.025 84.225 113.25 94.2313 113.25C104.244 113.25 109.525 109.025 113.775 105.631C117.45 102.694 119.881 100.75 125.5 100.75V88.25C115.494 88.25 110.213 92.475 105.969 95.8688C102.425 98.7 99.8563 100.75 94.2313 100.75ZM56.75 15.8688L69.9 29.0188L57.0438 45.0813C58.8313 44.7313 60.7688 44.5 62.9625 44.5C72.975 44.5 78.2563 48.725 82.5063 52.1188C86.1813 55.0563 88.6125 57 94.2313 57C99.8563 57 102.425 54.95 105.969 52.1188C106.794 51.4625 107.681 50.7625 108.613 50.0813L95.5125 37.0188L95.5438 36.9875L61.1688 2.61254C60.5888 2.03163 59.9001 1.57076 59.1419 1.25632C58.3836 0.941881 57.5709 0.780029 56.75 0.780029C55.9292 0.780029 55.1164 0.941881 54.3582 1.25632C53.6 1.57076 52.9112 2.03163 52.3313 2.61254L27.3313 27.6125L36.1688 36.45L56.75 15.8688Z" fill="#F3C300"/>
</svg>
