<svg width="50" height="50" viewBox="0 0 50 50" fill="none" xmlns="http://www.w3.org/2000/svg">
<path d="M36.8892 25.6104C36.6959 25.4168 36.4663 25.2632 36.2136 25.1584C35.9608 25.0535 35.6899 24.9996 35.4163 24.9996C35.1427 24.9996 34.8718 25.0535 34.619 25.1584C34.3663 25.2632 34.1367 25.4168 33.9434 25.6104L30.6226 28.9313C29.083 28.4729 26.2101 27.4313 24.3892 25.6104C22.5684 23.7896 21.5267 20.9167 21.0684 19.3771L24.3892 16.0563C24.5829 15.863 24.7365 15.6334 24.8413 15.3806C24.9461 15.1279 25.0001 14.857 25.0001 14.5833C25.0001 14.3097 24.9461 14.0388 24.8413 13.7861C24.7365 13.5333 24.5829 13.3037 24.3892 13.1104L16.0559 4.7771C15.8626 4.58346 15.633 4.42984 15.3802 4.32502C15.1275 4.22021 14.8566 4.16626 14.583 4.16626C14.3094 4.16626 14.0384 4.22021 13.7857 4.32502C13.533 4.42984 13.3034 4.58346 13.1101 4.7771L7.46005 10.4271C6.66839 11.2188 6.22255 12.3063 6.23922 13.4167C6.28714 16.3833 7.07255 26.6875 15.1934 34.8083C23.3142 42.9292 33.6184 43.7125 36.5871 43.7625H36.6455C37.7455 43.7625 38.7851 43.3292 39.5726 42.5417L45.2226 36.8917C45.4162 36.6984 45.5698 36.4688 45.6746 36.216C45.7794 35.9633 45.8334 35.6924 45.8334 35.4188C45.8334 35.1452 45.7794 34.8742 45.6746 34.6215C45.5698 34.3687 45.4162 34.1392 45.2226 33.9458L36.8892 25.6104ZM36.6246 39.5938C34.0246 39.55 25.1288 38.8521 18.1392 31.8604C11.1267 24.8479 10.4476 15.9208 10.4059 13.3729L14.583 9.19585L19.9705 14.5833L17.2767 17.2771C17.0318 17.5218 16.8518 17.8236 16.7529 18.1554C16.6539 18.4871 16.6392 18.8383 16.7101 19.1771C16.7601 19.4167 17.983 25.0979 21.4413 28.5563C24.8996 32.0146 30.5809 33.2375 30.8205 33.2875C31.1591 33.3603 31.5106 33.3468 31.8427 33.2481C32.1747 33.1495 32.4766 32.9689 32.7205 32.7229L35.4163 30.0292L40.8038 35.4167L36.6246 39.5938Z" fill="black"/>
</svg>
