<svg width="40" height="32" viewBox="0 0 40 32" fill="none" xmlns="http://www.w3.org/2000/svg">
<path d="M35.8905 7.97421C35.917 8.32501 35.917 8.67381 35.917 9.02261C35.917 19.697 27.6674 31.9971 12.5911 31.9971C7.94626 31.9971 3.63118 30.672 0 28.3708C0.659475 28.445 1.29452 28.471 1.98046 28.471C5.67065 28.4798 9.25635 27.2645 12.1596 25.0211C10.4486 24.9906 8.7901 24.4347 7.41551 23.431C6.04091 22.4272 5.0189 21.0258 4.49216 19.4224C4.99898 19.4965 5.50784 19.5466 6.04111 19.5466C6.7759 19.5466 7.51476 19.4464 8.20069 19.272C6.3439 18.9028 4.67428 17.9116 3.47571 16.467C2.27715 15.0223 1.62364 13.2135 1.6263 11.3479V11.2477C2.71932 11.8471 3.98738 12.2219 5.33075 12.272C4.20535 11.5355 3.28256 10.5361 2.6447 9.36296C2.00684 8.18982 1.67375 6.87942 1.67515 5.54867C1.67515 4.04925 2.0802 2.67411 2.79056 1.47537C4.85068 3.97111 7.42012 6.01286 10.3325 7.46837C13.2448 8.92389 16.4351 9.76072 19.6967 9.92467C19.5705 9.32329 19.4932 8.69987 19.4932 8.07444C19.4926 7.01394 19.7043 5.96374 20.1162 4.98386C20.528 4.00399 21.1319 3.11366 21.8933 2.36377C22.6547 1.61389 23.5588 1.01915 24.5537 0.613558C25.5487 0.207966 26.615 -0.00052596 27.6918 9.96402e-07C30.0529 9.96402e-07 32.184 0.974225 33.6821 2.54982C35.5175 2.20026 37.2777 1.54036 38.8846 0.599369C38.2728 2.46526 36.9912 4.04745 35.2799 5.04953C36.9078 4.86667 38.4987 4.44506 40 3.79868C38.8787 5.40855 37.4894 6.82027 35.8905 7.97421Z" fill="white"/>
</svg>
